<?xml version="1.0" encoding="UTF-8"?>
<svg xmlns="http://www.w3.org/2000/svg" xmlns:xlink="http://www.w3.org/1999/xlink" width="210pt" height="152pt" viewBox="0 0 210 152" version="1.1">
<defs>
<clipPath id="clip1">
  <path d="M 167 51 L 209.179688 51 L 209.179688 102 L 167 102 Z M 167 51 "/>
</clipPath>
<clipPath id="clip2">
  <path d="M 126 0.671875 L 159 0.671875 L 159 3 L 126 3 Z M 126 0.671875 "/>
</clipPath>
</defs>
<g id="surface1">
<g clip-path="url(#clip1)" clip-rule="nonzero">
<path style=" stroke:none;fill-rule:nonzero;fill:rgb(17.074585%,47.796631%,36.366272%);fill-opacity:1;" d="M 199.289062 82.640625 L 209.179688 84.839844 C 206.851562 94.46875 201.171875 101.191406 189.140625 101.191406 C 176.671875 101.191406 167.421875 93.179688 167.421875 76.308594 C 167.421875 59.699219 177.058594 51.550781 189.140625 51.550781 C 201.230469 51.550781 206.460938 58.019531 208.53125 66.609375 L 198.578125 69.519531 C 197.03125 64.03125 194.699219 60.28125 189.078125 60.28125 C 181.839844 60.28125 177.960938 66.417969 177.960938 76.308594 C 177.960938 86.390625 181.96875 92.730469 189.210938 92.730469 C 194.828125 92.730469 197.609375 89.167969 199.289062 82.640625 "/>
</g>
<path style=" stroke:none;fill-rule:nonzero;fill:rgb(17.074585%,47.796631%,36.366272%);fill-opacity:1;" d="M 126.171875 100.269531 L 158.660156 100.269531 L 158.660156 91.230469 L 126.171875 91.230469 Z M 126.171875 100.269531 "/>
<path style=" stroke:none;fill-rule:nonzero;fill:rgb(17.074585%,47.796631%,36.366272%);fill-opacity:1;" d="M 126.171875 80.050781 L 158.660156 80.050781 L 158.660156 71.011719 L 126.171875 71.011719 Z M 126.171875 80.050781 "/>
<path style=" stroke:none;fill-rule:nonzero;fill:rgb(17.074585%,47.796631%,36.366272%);fill-opacity:1;" d="M 126.171875 61.101562 L 158.660156 61.101562 L 158.660156 52.058594 L 126.171875 52.058594 Z M 126.171875 61.101562 "/>
<path style=" stroke:none;fill-rule:nonzero;fill:rgb(17.074585%,47.796631%,36.366272%);fill-opacity:1;" d="M 115.148438 52.460938 L 115.148438 61.25 L 100.859375 61.25 L 100.859375 100.289062 L 90.332031 100.289062 L 90.332031 61.25 L 76.109375 61.25 L 76.109375 52.460938 L 115.148438 52.460938 "/>
<path style=" stroke:none;fill-rule:nonzero;fill:rgb(17.074585%,47.796631%,36.366272%);fill-opacity:1;" d="M 54.339844 100.289062 L 64.808594 100.289062 L 64.808594 52.460938 L 54.339844 52.460938 Z M 54.339844 100.289062 "/>
<path style=" stroke:none;fill-rule:nonzero;fill:rgb(17.074585%,47.796631%,36.366272%);fill-opacity:1;" d="M 31.859375 82.640625 L 41.75 84.839844 C 39.429688 94.46875 33.738281 101.191406 21.71875 101.191406 C 9.238281 101.191406 0 93.179688 0 76.308594 C 0 59.699219 9.628906 51.550781 21.71875 51.550781 C 33.800781 51.550781 39.039062 58.019531 41.109375 66.609375 L 31.148438 69.519531 C 29.601562 64.03125 27.28125 60.28125 21.648438 60.28125 C 14.410156 60.28125 10.53125 66.417969 10.53125 76.308594 C 10.53125 86.390625 14.539062 92.730469 21.78125 92.730469 C 27.398438 92.730469 30.179688 89.167969 31.859375 82.640625 "/>
<path style=" stroke:none;fill-rule:nonzero;fill:#f59f00;fill-opacity:1;" d="M 126.171875 152 L 158.660156 152 L 158.660156 150.25 L 126.171875 150.25 Z M 126.171875 152 "/>
<path style=" stroke:none;fill-rule:nonzero;fill:#f59f00;fill-opacity:1;" d="M 126.171875 134.988281 L 158.660156 134.988281 L 158.660156 131.5 L 126.171875 131.5 Z M 126.171875 134.988281 "/>
<path style=" stroke:none;fill-rule:nonzero;fill:#f59f00;fill-opacity:1;" d="M 126.171875 118 L 158.660156 118 L 158.660156 112.769531 L 126.171875 112.769531 Z M 126.171875 118 "/>
<path style=" stroke:none;fill-rule:nonzero;fill:#f59f00;fill-opacity:1;" d="M 126.171875 39.890625 L 158.660156 39.890625 L 158.660156 34.660156 L 126.171875 34.660156 Z M 126.171875 39.890625 "/>
<path style=" stroke:none;fill-rule:nonzero;fill:#f59f00;fill-opacity:1;" d="M 126.171875 21.160156 L 158.660156 21.160156 L 158.660156 17.679688 L 126.171875 17.679688 Z M 126.171875 21.160156 "/>
<g clip-path="url(#clip2)" clip-rule="nonzero">
<path style=" stroke:none;fill-rule:nonzero;fill:#f59f00;fill-opacity:1;" d="M 126.171875 2.410156 L 158.660156 2.410156 L 158.660156 0.667969 L 126.171875 0.667969 Z M 126.171875 2.410156 "/>
</g>
</g>
</svg>