<?xml version="1.0" encoding="UTF-8" standalone="no"?>
<!-- Created with Inkscape (http://www.inkscape.org/) -->

<svg
   version="1.1"
   id="svg1"
   width="403.77957"
   height="403.77957"
   viewBox="0 0 403.77957 403.77957"
   xmlns="http://www.w3.org/2000/svg"
   xmlns:svg="http://www.w3.org/2000/svg">
  <defs
     id="defs1" />
  <g
     id="g1">
    <path
       id="path1"
       d="m 301.418,151.418 c 0,82.844 -67.156,150 -150,150 -82.844,0 -150,-67.156 -150,-150 0,-82.844 67.156,-150 150,-150 82.844,0 150,67.156 150,150 z"
       style="fill:#ffffff;fill-opacity:1;fill-rule:nonzero;stroke:none"
       transform="scale(1.3333333)" />
    <path
       id="path2"
       d="m 151.414,15.938 c -74.953,0 -135.711,60.656 -135.711,135.476 -0.004,35.934 14.297,70.395 39.746,95.801 25.453,25.41 59.973,39.683 95.965,39.683 28.684,-0.058 56.609,-9.187 79.774,-26.078 l -7.09,-7.074 -76.871,-76.742 C 147.223,177 147.223,177 147.219,177 135.453,165.254 122.613,163.227 112.16,164.457 c 5.555,6.172 9.43,11.07 9.43,12.543 0,5.117 -20.5,25.582 -25.629,25.582 -5.125,0 -51.25,-46.051 -51.25,-51.168 0,-5.117 20.504,-25.582 25.629,-25.582 1.625,0 7.39,4.652 14.492,11.148 34.598,-54.468 123.813,-73.492 145.211,-73.476 2.457,0 4.023,0.258 4.504,0.734 3.621,3.621 -112.953,36.012 -61.699,87.176 l 84.554,84.41 c 19.2,-23.965 29.684,-53.722 29.731,-84.41 0,-35.93 -14.297,-70.391 -39.75,-95.797 C 221.93,30.207 187.41,15.934 151.414,15.938 Z"
       style="fill:#558ca0;fill-opacity:0.7;fill-rule:nonzero;stroke:none"
       transform="scale(1.3333333)" />
    <path
       id="path3"
       d="m 159.172,97.695 c -7.293,5.985 -17.984,5.262 -24.406,-1.648 -6.422,-6.91 -6.364,-17.625 0.14,-24.461 6.5,-6.84 17.199,-7.438 24.426,-1.367 7.223,6.066 8.481,16.707 2.867,24.293"
       style="fill:none;stroke:#ffffff;stroke-width:3.57143;stroke-linecap:butt;stroke-linejoin:round;stroke-miterlimit:4;stroke-dasharray:none;stroke-opacity:1"
       transform="scale(1.3333333)" />
    <path
       id="path4"
       d="m 203.688,185.141 c 1.23,-4.664 5.691,-7.727 10.484,-7.2 4.797,0.528 8.48,4.489 8.668,9.309 0.183,4.82 -3.184,9.051 -7.926,9.945"
       style="fill:none;stroke:#ffffff;stroke-width:1.94804;stroke-linecap:butt;stroke-linejoin:round;stroke-miterlimit:4;stroke-dasharray:none;stroke-opacity:1"
       transform="scale(1.3333333)" />
    <path
       id="path5"
       d="m 115.707,194.98 c 0,12.516 -10.121,22.676 -22.633,22.727 -12.515,0.055 -22.719,-10.023 -22.82,-22.539 -0.106,-12.512 9.93,-22.758 22.441,-22.91 12.516,-0.156 22.801,9.832 23.008,22.347"
       style="fill:none;stroke:#ffffff;stroke-width:4.54544;stroke-linecap:round;stroke-linejoin:round;stroke-miterlimit:4;stroke-dasharray:none;stroke-opacity:1"
       transform="scale(1.3333333)" />
    <path
       id="path6"
       d="m 87.133,73.34 c 0,5.363 -4.336,9.715 -9.699,9.738 -5.364,0.024 -9.739,-4.297 -9.782,-9.66 -0.043,-5.363 4.254,-9.754 9.618,-9.82 5.363,-0.067 9.773,4.215 9.863,9.578"
       style="fill:none;stroke:#ffffff;stroke-width:1.94804;stroke-linecap:round;stroke-linejoin:round;stroke-miterlimit:4;stroke-dasharray:none;stroke-opacity:1"
       transform="scale(1.3333333)" />
    <path
       id="path7"
       d="m 137.133,37.652 c 0,6.254 -5.059,11.336 -11.317,11.364 -6.257,0.023 -11.359,-5.012 -11.41,-11.27 -0.051,-6.258 4.965,-11.379 11.223,-11.457 6.258,-0.078 11.398,4.918 11.504,11.172"
       style="fill:none;stroke:#ffffff;stroke-width:2.27271;stroke-linecap:round;stroke-linejoin:round;stroke-miterlimit:4;stroke-dasharray:none;stroke-opacity:1"
       transform="scale(1.3333333)" />
    <path
       id="path8"
       d="m 192.23,53.008 c 0,5.722 -4.625,10.367 -10.347,10.39 -5.719,0.024 -10.383,-4.582 -10.43,-10.304 -0.051,-5.723 4.539,-10.403 10.258,-10.477 5.723,-0.07 10.422,4.496 10.519,10.219"
       style="fill:none;stroke:#ffffff;stroke-width:2.07791;stroke-linecap:round;stroke-linejoin:round;stroke-miterlimit:4;stroke-dasharray:none;stroke-opacity:1"
       transform="scale(1.3333333)" />
    <path
       id="path9"
       d="m 172.848,230.48 c 0,5.364 -4.336,9.719 -9.7,9.743 -5.367,0.019 -9.738,-4.297 -9.781,-9.66 -0.047,-5.364 4.254,-9.754 9.617,-9.821 5.364,-0.066 9.774,4.215 9.86,9.578"
       style="fill:none;stroke:#ffffff;stroke-width:1.94804;stroke-linecap:round;stroke-linejoin:round;stroke-miterlimit:4;stroke-dasharray:none;stroke-opacity:1"
       transform="scale(1.3333333)" />
    <path
       id="path10"
       d="m 279.992,173.473 c 0,9.832 -7.953,17.816 -17.785,17.855 -9.832,0.043 -17.848,-7.875 -17.93,-17.707 -0.082,-9.832 7.801,-17.883 17.633,-18.004 9.836,-0.121 17.914,7.727 18.078,17.559"
       style="fill:none;stroke:#ffffff;stroke-width:3.57143;stroke-linecap:round;stroke-linejoin:round;stroke-miterlimit:4;stroke-dasharray:none;stroke-opacity:1"
       transform="scale(1.3333333)" />
    <path
       id="path11"
       d="m 215.703,130.535 c 0,7.153 -5.781,12.957 -12.933,12.985 -7.149,0.031 -12.981,-5.727 -13.04,-12.879 -0.058,-7.149 5.676,-13.004 12.825,-13.094 7.152,-0.086 13.027,5.621 13.148,12.773"
       style="fill:none;stroke:#ffffff;stroke-width:2.59739;stroke-linecap:round;stroke-linejoin:round;stroke-miterlimit:4;stroke-dasharray:none;stroke-opacity:1"
       transform="scale(1.3333333)" />
    <path
       id="path12"
       d="m 258.977,123.34 c 0,5.363 -4.336,9.715 -9.7,9.738 -5.363,0.024 -9.734,-4.297 -9.781,-9.66 -0.043,-5.363 4.258,-9.754 9.621,-9.82 5.363,-0.067 9.77,4.215 9.86,9.578"
       style="fill:none;stroke:#ffffff;stroke-width:1.94804;stroke-linecap:round;stroke-linejoin:round;stroke-miterlimit:4;stroke-dasharray:none;stroke-opacity:1"
       transform="scale(1.3333333)" />
    <path
       id="path13"
       d="m 140.492,69.398 c -3.5,-7.003 -7.004,-14.007 -10.504,-21.011"
       style="fill:none;stroke:#ffffff;stroke-width:1.88988;stroke-linecap:butt;stroke-linejoin:miter;stroke-miterlimit:4;stroke-dasharray:none;stroke-opacity:1"
       transform="scale(1.3333333)" />
    <path
       id="path14"
       d="m 158.559,69.813 c 4.761,-3.641 9.523,-7.282 14.285,-10.922"
       style="fill:none;stroke:#ffffff;stroke-width:1.88988;stroke-linecap:butt;stroke-linejoin:miter;stroke-miterlimit:4;stroke-dasharray:none;stroke-opacity:1"
       transform="scale(1.3333333)" />
    <path
       id="path15"
       d="M 129.988,80.32 C 115.703,77.938 101.418,75.559 87.133,73.176"
       style="fill:none;stroke:#ffffff;stroke-width:1.88988;stroke-linecap:butt;stroke-linejoin:miter;stroke-miterlimit:4;stroke-dasharray:none;stroke-opacity:1"
       transform="scale(1.3333333)" />
    <path
       id="path16"
       d="m 222.844,187.461 c 7.144,-2.379 14.289,-4.762 21.429,-7.141"
       style="fill:#ffffff;fill-opacity:1;fill-rule:nonzero;stroke:#ffffff;stroke-width:1.88988;stroke-linecap:butt;stroke-linejoin:miter;stroke-miterlimit:4;stroke-dasharray:none;stroke-opacity:1"
       transform="scale(1.3333333)" />
    <path
       id="path17"
       d="m 208.559,178.891 c -2.379,-12.141 -4.762,-24.286 -7.141,-36.43"
       style="fill:#ffffff;fill-opacity:1;fill-rule:nonzero;stroke:#ffffff;stroke-width:1.88988;stroke-linecap:butt;stroke-linejoin:miter;stroke-miterlimit:4;stroke-dasharray:none;stroke-opacity:1"
       transform="scale(1.3333333)" />
    <path
       id="path18"
       d="m 215.703,178.891 c 9.524,-15.477 19.047,-30.953 28.57,-46.43"
       style="fill:#ffffff;fill-opacity:1;fill-rule:nonzero;stroke:#ffffff;stroke-width:1.88988;stroke-linecap:butt;stroke-linejoin:miter;stroke-miterlimit:4;stroke-dasharray:none;stroke-opacity:1"
       transform="scale(1.3333333)" />
    <path
       id="path19"
       d="m 124.742,257.652 c 0,6.973 -5.637,12.633 -12.609,12.661 -6.973,0.031 -12.66,-5.586 -12.715,-12.559 -0.059,-6.969 5.531,-12.676 12.504,-12.766 6.973,-0.086 12.703,5.481 12.816,12.453"
       style="fill:none;stroke:#ffffff;stroke-width:2.53246;stroke-linecap:round;stroke-linejoin:round;stroke-miterlimit:4;stroke-dasharray:none;stroke-opacity:1"
       transform="scale(1.3333333)" />
    <path
       id="path20"
       d="m 40.867,179.32 c 0,4.469 -3.613,8.098 -8.086,8.118 -4.468,0.019 -8.113,-3.583 -8.148,-8.051 -0.039,-4.469 3.547,-8.129 8.015,-8.184 4.469,-0.055 8.141,3.516 8.215,7.985"
       style="fill:none;stroke:#ffffff;stroke-width:1.62337;stroke-linecap:round;stroke-linejoin:round;stroke-miterlimit:4;stroke-dasharray:none;stroke-opacity:1"
       transform="scale(1.3333333)" />
    <path
       id="path21"
       d="M 72.844,187.461 C 62.063,185.082 51.277,182.699 40.492,180.32"
       style="fill:none;stroke:#ffffff;stroke-width:1.88988;stroke-linecap:butt;stroke-linejoin:miter;stroke-miterlimit:4;stroke-dasharray:none;stroke-opacity:1"
       transform="scale(1.3333333)" />
    <path
       id="path22"
       d="m 101.832,216.035 c 2.242,9.524 4.484,19.047 6.727,28.57"
       style="fill:none;stroke:#ffffff;stroke-width:1.88988;stroke-linecap:butt;stroke-linejoin:miter;stroke-miterlimit:4;stroke-dasharray:none;stroke-opacity:1"
       transform="scale(1.3333333)" />
    <path
       id="path23"
       d="m 115.703,201.75 c 13.809,7.141 27.617,14.285 41.43,21.426"
       style="fill:none;stroke:#ffffff;stroke-width:1.88988;stroke-linecap:butt;stroke-linejoin:miter;stroke-miterlimit:4;stroke-dasharray:none;stroke-opacity:1"
       transform="scale(1.3333333)" />
    <path
       id="path24"
       d="m 151.414,16.035 c -74.949,0 -135.711,60.758 -135.711,135.711 0,35.996 14.297,70.516 39.746,95.965 25.453,25.453 59.973,39.754 95.965,39.754 28.684,-0.059 56.609,-9.207 79.77,-26.125 l -7.086,-7.086 -76.871,-76.875 c -0.004,-0.004 -0.004,0 -0.008,-0.004 -11.766,-11.766 -24.606,-13.797 -35.059,-12.566 5.555,6.183 9.43,11.093 9.43,12.566 0,5.125 -20.5,25.629 -25.629,25.629 -5.125,0 -51.25,-46.133 -51.25,-51.258 0,-5.125 20.504,-25.629 25.629,-25.629 1.625,0 7.39,4.664 14.496,11.172 34.594,-54.566 123.809,-73.621 145.207,-73.605 2.457,0 4.02,0.257 4.5,0.738 3.625,3.625 -112.949,36.07 -61.695,87.324 l 84.55,84.555 c 19.204,-24.004 29.684,-53.817 29.735,-84.555 0,-35.992 -14.301,-70.512 -39.75,-95.965 C 221.93,30.332 187.41,16.031 151.414,16.035 Z"
       style="fill:none;stroke:#558ca0;stroke-width:3.57142;stroke-linecap:butt;stroke-linejoin:miter;stroke-miterlimit:4;stroke-dasharray:none;stroke-opacity:1"
       transform="scale(1.3333333)" />
  </g>
</svg>
